<svg width="140" height="125" viewBox="0 0 140 125" fill="none" xmlns="http://www.w3.org/2000/svg">
<path d="M136.5 44V7H9V55H125L136.5 44Z" fill="#0568C3" fill-opacity="0.85"/>
<path d="M139.5 25.5V4.5H9.5L5 0.5" stroke="url(#paint0_linear_1135_1183)"/>
<path d="M138.5 46.5L127.5 57.5H9.5V120.5" stroke="#1187F4"/>
<path d="M139.5 30V42" stroke="url(#paint1_linear_1135_1183)"/>
<path d="M139 57.5V50L132 57.5H139Z" fill="url(#paint2_linear_1135_1183)"/>
<path d="M139 50V57.5H132" stroke="url(#paint3_linear_1135_1183)" stroke-width="0.2"/>
<path d="M10.5 0H7.5L11 3H14L10.5 0Z" fill="url(#paint4_linear_1135_1183)"/>
<path d="M30.5 0H27.5L31 3H34L30.5 0Z" fill="url(#paint5_linear_1135_1183)"/>
<path d="M20.5 0H17.5L21 3H24L20.5 0Z" fill="url(#paint6_linear_1135_1183)"/>
<path d="M40.5 0H37.5L41 3H44L40.5 0Z" fill="url(#paint7_linear_1135_1183)"/>
<path d="M15.5 0H12.5L16 3H19L15.5 0Z" fill="url(#paint8_linear_1135_1183)"/>
<path d="M35.5 0H32.5L36 3H39L35.5 0Z" fill="url(#paint9_linear_1135_1183)"/>
<path d="M25.5 0H22.5L26 3H29L25.5 0Z" fill="url(#paint10_linear_1135_1183)"/>
<path d="M45.5 0H42.5L46 3H49L45.5 0Z" fill="url(#paint11_linear_1135_1183)"/>
<path d="M0.25 121C0.25 121.471 0.463705 121.938 0.888363 122.385C1.31425 122.832 1.94233 123.247 2.73757 123.6C4.32743 124.307 6.54132 124.75 9 124.75C11.4587 124.75 13.6726 124.307 15.2624 123.6C16.0577 123.247 16.6858 122.832 17.1116 122.385C17.5363 121.938 17.75 121.471 17.75 121C17.75 120.529 17.5363 120.062 17.1116 119.615C16.6858 119.168 16.0577 118.753 15.2624 118.4C13.6726 117.693 11.4587 117.25 9 117.25C6.54132 117.25 4.32743 117.693 2.73757 118.4C1.94233 118.753 1.31425 119.168 0.888363 119.615C0.463705 120.062 0.25 120.529 0.25 121Z" fill="#0568C3" fill-opacity="0.1" stroke="#40A3FF" stroke-width="0.5"/>
<g filter="url(#filter0_f_1135_1183)">
<ellipse cx="6" cy="2" rx="6" ry="2" transform="matrix(-1 0 0 1 15 119)" fill="#40A3FF"/>
</g>
<defs>
<filter id="filter0_f_1135_1183" x="2" y="118" width="14" height="6" filterUnits="userSpaceOnUse" color-interpolation-filters="sRGB">
<feFlood flood-opacity="0" result="BackgroundImageFix"/>
<feBlend mode="normal" in="SourceGraphic" in2="BackgroundImageFix" result="shape"/>
<feGaussianBlur stdDeviation="0.5" result="effect1_foregroundBlur_1135_1183"/>
</filter>
<linearGradient id="paint0_linear_1135_1183" x1="159" y1="8.5" x2="-25" y2="8.5" gradientUnits="userSpaceOnUse">
<stop stop-color="#0568C3"/>
<stop offset="1" stop-color="#0568C3" stop-opacity="0.4"/>
</linearGradient>
<linearGradient id="paint1_linear_1135_1183" x1="139" y1="30" x2="139" y2="42" gradientUnits="userSpaceOnUse">
<stop stop-color="#B16836"/>
<stop offset="1" stop-color="#EFC057"/>
</linearGradient>
<linearGradient id="paint2_linear_1135_1183" x1="139.5" y1="53" x2="132.5" y2="58" gradientUnits="userSpaceOnUse">
<stop stop-color="#EFC057"/>
<stop offset="1" stop-color="#B16836"/>
</linearGradient>
<linearGradient id="paint3_linear_1135_1183" x1="138.5" y1="49.5" x2="131.5" y2="56.5" gradientUnits="userSpaceOnUse">
<stop stop-color="#FFD16B" stop-opacity="0"/>
<stop offset="0.22228" stop-color="#FFD16B"/>
<stop offset="0.733893" stop-color="#FFD16B"/>
<stop offset="1" stop-color="#FFD16B" stop-opacity="0"/>
</linearGradient>
<linearGradient id="paint4_linear_1135_1183" x1="10.75" y1="0" x2="10.75" y2="3" gradientUnits="userSpaceOnUse">
<stop stop-color="#0568C3" stop-opacity="0"/>
<stop offset="1" stop-color="#0568C3"/>
</linearGradient>
<linearGradient id="paint5_linear_1135_1183" x1="30.75" y1="0" x2="30.75" y2="3" gradientUnits="userSpaceOnUse">
<stop stop-color="#0568C3" stop-opacity="0"/>
<stop offset="1" stop-color="#0568C3"/>
</linearGradient>
<linearGradient id="paint6_linear_1135_1183" x1="20.75" y1="0" x2="20.75" y2="3" gradientUnits="userSpaceOnUse">
<stop stop-color="#0568C3" stop-opacity="0"/>
<stop offset="1" stop-color="#0568C3"/>
</linearGradient>
<linearGradient id="paint7_linear_1135_1183" x1="40.75" y1="0" x2="40.75" y2="3" gradientUnits="userSpaceOnUse">
<stop stop-color="#0568C3" stop-opacity="0"/>
<stop offset="1" stop-color="#0568C3"/>
</linearGradient>
<linearGradient id="paint8_linear_1135_1183" x1="15.75" y1="0" x2="15.75" y2="3" gradientUnits="userSpaceOnUse">
<stop stop-color="#0568C3" stop-opacity="0"/>
<stop offset="1" stop-color="#0568C3"/>
</linearGradient>
<linearGradient id="paint9_linear_1135_1183" x1="35.75" y1="0" x2="35.75" y2="3" gradientUnits="userSpaceOnUse">
<stop stop-color="#0568C3" stop-opacity="0"/>
<stop offset="1" stop-color="#0568C3"/>
</linearGradient>
<linearGradient id="paint10_linear_1135_1183" x1="25.75" y1="0" x2="25.75" y2="3" gradientUnits="userSpaceOnUse">
<stop stop-color="#0568C3" stop-opacity="0"/>
<stop offset="1" stop-color="#0568C3"/>
</linearGradient>
<linearGradient id="paint11_linear_1135_1183" x1="45.75" y1="0" x2="45.75" y2="3" gradientUnits="userSpaceOnUse">
<stop stop-color="#0568C3" stop-opacity="0"/>
<stop offset="1" stop-color="#0568C3"/>
</linearGradient>
</defs>
</svg>
